<?xml version="1.0" encoding="utf-8"?>
<!-- Generator: Adobe Illustrator 26.0.1, SVG Export Plug-In . SVG Version: 6.00 Build 0)  -->
<svg version="1.1" id="Layer_1" xmlns="http://www.w3.org/2000/svg" xmlns:xlink="http://www.w3.org/1999/xlink" x="0px" y="0px"
	 viewBox="0 0 792 612" style="enable-background:new 0 0 792 612;" xml:space="preserve">
<style type="text/css">
	.st0{fill:none;}
	.st1{fill:#F7941D;}
	.st2{fill:#FFFFFF;}
</style>
<g>
	<line class="st0" x1="507.71" y1="379.13" x2="507.37" y2="379.5"/>
	<path class="st1" d="M381.15,137.99c12.26-8.58,26.93-11.33,40.68-8.77c10.5,1.92,20.46,6.92,28.45,14.71l0.02,0.02l159.51,316.66
		c29.37-39.74,46.74-88.89,46.74-142.1c0-132.18-107.14-239.32-239.32-239.32c-132.17,0-239.31,107.14-239.31,239.32
		c0,35.68,7.81,69.54,21.82,99.96c0.39-0.29,0.8-0.54,1.23-0.77l94.2-15.8l-82.79,40.4c41.94,69.25,117.99,115.52,204.85,115.52
		c77.24,0,145.94-36.59,189.69-93.38L363,204.89C352.51,181.35,359.55,153.1,381.15,137.99z M253.88,387.16h-0.01
		c-4.56-0.87-8.63-3.07-11.78-6.18c-4.14-4.07-6.7-9.71-6.7-15.93c0-10.94,7.93-20.06,18.44-22.09l152.57,22.09L253.88,387.16z
		 M512.35,387.18l-225.42-77.15l-0.01-0.01c-5.65-4.4-9.71-10.29-11.85-16.8c-2.83-8.52-2.37-18.09,2.02-26.64
		c7.71-15.05,25.05-22,40.94-17.39L512.35,387.18z"/>
	<path class="st2" d="M200.97,417.71l94.2-15.8l-82.79,40.4c-4.64-7.67-8.87-15.62-12.64-23.83
		C200.13,418.18,200.54,417.93,200.97,417.71z"/>
	<path class="st2" d="M253.83,342.97l152.57,22.09l-152.52,22.11h-0.01c-4.56-0.87-8.63-3.07-11.78-6.18
		c-4.14-4.07-6.7-9.71-6.7-15.93C235.39,354.11,243.32,344.99,253.83,342.97z"/>
	<path class="st2" d="M318.03,249.2l194.32,137.99l-225.42-77.15l-0.01-0.01c-5.65-4.4-9.71-10.29-11.85-16.8
		c-2.83-8.52-2.37-18.09,2.02-26.64C284.8,251.53,302.14,244.59,318.03,249.2z"/>
	<path class="st2" d="M609.81,460.61c-0.95,1.29-1.91,2.56-2.89,3.83L363,204.89c-10.49-23.54-3.45-51.78,18.15-66.89
		c12.26-8.58,26.93-11.33,40.68-8.77c10.5,1.92,20.46,6.92,28.45,14.71l0.02,0.02L609.81,460.61z"/>
	<g>
		<path class="st0" d="M609.81,460.61c-0.95,1.29-1.91,2.56-2.89,3.83L363,204.89c-10.49-23.54-3.45-51.78,18.15-66.89
			c12.26-8.58,26.93-11.33,40.68-8.77c10.5,1.92,20.46,6.92,28.45,14.71l0.02,0.02L609.81,460.61z"/>
	</g>
	<g>
		<path class="st0" d="M406.4,365.05l-152.52,22.11h-0.01c-4.56-0.87-8.63-3.07-11.78-6.18c-4.14-4.07-6.7-9.71-6.7-15.93
			c0-10.94,7.93-20.06,18.44-22.09L406.4,365.05z"/>
	</g>
	<g>
		<path class="st0" d="M295.17,401.91l-82.79,40.4c-4.64-7.67-8.87-15.62-12.64-23.83c0.39-0.29,0.8-0.54,1.23-0.77L295.17,401.91z"
			/>
	</g>
</g>
</svg>
