<?xml version="1.0" encoding="utf-8"?>
<!-- Generator: Adobe Illustrator 26.0.1, SVG Export Plug-In . SVG Version: 6.00 Build 0)  -->
<svg version="1.1" id="Layer_1" xmlns="http://www.w3.org/2000/svg" xmlns:xlink="http://www.w3.org/1999/xlink" x="0px" y="0px"
	 viewBox="0 0 792 612" style="enable-background:new 0 0 792 612;" xml:space="preserve">
<style type="text/css">
	.st0{fill:#808285;}
	.st1{fill:#4688F4;}
	.st2{fill:none;}
	.st3{fill:#3D6EC9;}
	.st4{fill:#1FA463;}
	.st5{fill:#008000;}
	.st6{fill:#E49E00;}
	.st7{fill:#FFBB00;}
</style>
<rect y="0" class="st0" width="792" height="612"/>
<g>
	<g>
		<polygon class="st1" points="648.61,372.26 619.65,438.69 227.27,438.69 319.14,372.26 		"/>
	</g>
	<g>
		<line class="st2" x1="464.52" y1="156.14" x2="464.5" y2="156.14"/>
		<line class="st2" x1="227.14" y1="438.43" x2="226.03" y2="439.76"/>
		<polygon class="st3" points="319.14,372.26 227.27,438.69 227.27,438.29 282.79,372.26 		"/>
		<polygon class="st4" points="398.51,234.64 282.79,372.26 227.27,438.29 227.14,438.43 196,372.26 377.48,156.42 		"/>
	</g>
	<g>
		<line class="st2" x1="377.48" y1="156.42" x2="377.25" y2="156.14"/>
		<line class="st2" x1="619.19" y1="440.18" x2="617.91" y2="438.69"/>
		<polygon class="st5" points="421.17,207.71 398.51,234.64 377.48,156.42 		"/>
		<polygon class="st6" points="648.61,372.26 561.33,372.26 539.45,346.57 		"/>
		<polygon class="st7" points="648.61,372.26 539.45,346.57 421.17,207.71 377.48,156.42 377.72,156.14 464.5,156.14 464.5,156.16 
					"/>
	</g>
	<line class="st2" x1="464.52" y1="156.14" x2="464.5" y2="156.14"/>
	<line class="st2" x1="377.72" y1="156.14" x2="377.25" y2="156.14"/>
	<line class="st2" x1="227.27" y1="438.69" x2="227.14" y2="438.43"/>
</g>
</svg>
