<?xml version="1.0" encoding="utf-8"?>
<!-- Generator: Adobe Illustrator 26.0.1, SVG Export Plug-In . SVG Version: 6.00 Build 0)  -->
<svg version="1.1" id="Layer_1" xmlns="http://www.w3.org/2000/svg" xmlns:xlink="http://www.w3.org/1999/xlink" x="0px" y="0px"
	 viewBox="0 0 1366 768" style="enable-background:new 0 0 1366 768;" xml:space="preserve">
<style type="text/css">
	.st0{fill:#FF00FF;}
	.st1{fill:url(#SVGID_1_);}
	.st2{fill:url(#SVGID_00000033345660303403839780000011600071802432321200_);}
	.st3{fill:url(#SVGID_00000093885084255943476040000008355168493321911473_);}
	.st4{fill:url(#SVGID_00000012438280600148000130000006834706374433429391_);}
</style>
<path class="st0" d="M97,570"/>
<g>
	<path class="st0" d="M646.23,134.77c-0.04,0-0.07,0-0.1-0.01c-0.01,0.01-0.02,0-0.02,0c-38.21,3.89-69.09,32.57-76.29,69.7
		c-1.04,5.37-1.59,10.93-1.59,16.62h0.03v84.86c-17.85-7.74-37.26-11.82-57.31-11.82c-26.48,0-51.89,7.11-74.01,20.42
		c-9.99,6.01-19.32,13.28-27.78,21.74C381.97,363.45,367,399.61,367,438.06c0,38.45,14.97,74.59,42.16,101.79
		c16.29,16.29,35.81,28.2,57.1,35.11l0.02,0.01c14.23,4.62,29.27,7.03,44.67,7.03c23.31,0,45.78-5.5,65.92-15.9
		c13.07-6.75,25.16-15.55,35.87-26.26c26.56-26.57,41.46-61.67,42.13-99.12h0.03V221.08H655v-77.54
		C655,138.69,651.08,134.77,646.23,134.77z M527.49,492.93c-5.23,1.59-10.79,2.44-16.54,2.44c-31.6,0-57.31-25.72-57.31-57.31
		c0-8.1,1.69-15.81,4.74-22.8c2.04-4.7,4.7-9.07,7.86-13.02c0.01-0.02,0.02-0.03,0.02-0.03c5.07-6.31,11.45-11.54,18.73-15.24
		c7.79-3.99,16.62-6.23,25.96-6.23c31.61,0,57.31,25.71,57.31,57.31C568.26,463.9,551.05,485.82,527.49,492.93z"/>
	<path class="st0" d="M458.96,413.93"/>
	<linearGradient id="SVGID_1_" gradientUnits="userSpaceOnUse" x1="447.097" y1="483.8207" x2="560.152" y2="567.6501">
		<stop  offset="0" style="stop-color:#CD00CC"/>
		<stop  offset="0.354" style="stop-color:#ED00ED"/>
		<stop  offset="0.6015" style="stop-color:#FF00FF"/>
	</linearGradient>
	<path class="st1" d="M576.86,566.1c-20.14,10.39-42.61,15.9-65.92,15.9c-15.4,0-30.43-2.41-44.67-7.03l-0.02-0.01
		c-52.66-59.94-23.54-130.96-7.88-159.7c-3.06,6.99-4.74,14.7-4.74,22.8c0,31.6,25.72,57.31,57.31,57.31
		c5.75,0,11.31-0.85,16.54-2.44L576.86,566.1z"/>
	
		<linearGradient id="SVGID_00000169528397854200892390000013244212493293307022_" gradientUnits="userSpaceOnUse" x1="490.9658" y1="354.4306" x2="619.5505" y2="381.124">
		<stop  offset="0" style="stop-color:#FF00FF"/>
		<stop  offset="0.5832" style="stop-color:#ED00ED"/>
		<stop  offset="0.8218" style="stop-color:#E400E4"/>
		<stop  offset="1" style="stop-color:#CD00CC"/>
	</linearGradient>
	<path style="fill:url(#SVGID_00000169528397854200892390000013244212493293307022_);" d="M568.26,305.94v132.12
		c0-31.61-25.71-57.31-57.31-57.31c-9.34,0-18.17,2.24-25.96,6.23l-48.06-72.44c22.13-13.31,47.53-20.42,74.01-20.42
		C530.99,294.11,550.41,298.19,568.26,305.94z"/>
	
		<linearGradient id="SVGID_00000142870693894826653850000004441966036980745657_" gradientUnits="userSpaceOnUse" x1="612.344" y1="170.0636" x2="614.2968" y2="286.7461">
		<stop  offset="0.4455" style="stop-color:#FF00FF"/>
		<stop  offset="0.538" style="stop-color:#ED00ED"/>
		<stop  offset="0.5758" style="stop-color:#E400E4"/>
		<stop  offset="1" style="stop-color:#CD00CC"/>
	</linearGradient>
	<path style="fill:url(#SVGID_00000142870693894826653850000004441966036980745657_);" d="M655,143.54v60.92h-85.18
		c7.2-37.14,38.09-65.82,76.29-69.7c0,0,0.01,0.01,0.02,0c0.03,0.01,0.06,0.01,0.1,0.01C651.08,134.77,655,138.69,655,143.54z"/>
</g>
<g>
	<g>
		<path class="st0" d="M949.4,437.45c-0.34-77.19-61.73-139.73-136.87-139.4c-51.86,0.23-96.92,30.35-119.73,74.37l-0.01,0
			l-0.02,0.04c-5.07,9.77-9.04,20.24-11.74,31.22l0,0.01c-2.76,11.18-4.2,22.89-4.15,34.95c0.07,16.28,2.85,31.89,7.91,46.41
			c18.93,54.35,69.66,93.25,128.96,92.99C888.9,577.71,949.74,514.64,949.4,437.45z M747.24,476.6
			c-6.05-11.32-9.52-24.35-9.58-38.22c-0.19-43.69,33.51-79.38,75.14-79.56c11.26-0.05,21.95,2.5,31.57,7.12
			c0.07,0.03,0.12,0.06,0.18,0.09c0.23,0.12,0.47,0.23,0.69,0.35c2.1,1.02,4.14,2.16,6.12,3.4c0.22,0.13,0.42,0.25,0.61,0.37
			c0.23,0.14,0.45,0.28,0.66,0.41c1.14,0.72,1.73,1.15,1.73,1.15c20.53,14.09,34.16,38.39,34.28,66
			c0.19,43.69-33.51,79.38-75.14,79.56C785.08,517.4,760.21,500.95,747.24,476.6z"/>
	</g>
	
		<linearGradient id="SVGID_00000035506096726125961060000009949869192122783141_" gradientUnits="userSpaceOnUse" x1="719.1801" y1="494.3231" x2="852.4938" y2="502.6657" gradientTransform="matrix(4.387095e-03 1 -1 4.387095e-03 1254.6238 -370.0504)">
		<stop  offset="2.131116e-07" style="stop-color:#CD00CC"/>
		<stop  offset="0.8541" style="stop-color:#FF00FF"/>
	</linearGradient>
	<path style="fill:url(#SVGID_00000035506096726125961060000009949869192122783141_);" d="M684.8,485.05
		c-5.06-14.52-7.84-30.13-7.91-46.41c-0.05-12.06,1.38-23.77,4.15-34.95l0-0.01l11.74-31.22l0.02-0.04l0.01,0
		c74.45-36.62,129.91-17.35,151.57-6.49c-9.62-4.61-20.32-7.17-31.57-7.12c-41.63,0.18-75.33,35.87-75.14,79.56
		c0.06,13.87,3.53,26.9,9.58,38.22L684.8,485.05z"/>
</g>
</svg>
