<?xml version="1.0" encoding="utf-8"?>
<!-- Generator: Adobe Illustrator 26.0.1, SVG Export Plug-In . SVG Version: 6.00 Build 0)  -->
<svg version="1.1" id="Layer_1" xmlns="http://www.w3.org/2000/svg" xmlns:xlink="http://www.w3.org/1999/xlink" x="0px" y="0px"
	 viewBox="0 0 1920 1080" style="enable-background:new 0 0 1920 1080;" xml:space="preserve">
<style type="text/css">
	.st0{fill:#1A1A1A;}
	.st1{fill:#B3B3B3;}
	.st2{fill:#F7931E;}
	.st3{fill:#FBB03B;}
	.st4{fill:#E6E6E6;}
</style>
<rect class="st0" width="1920" height="1080"/>
<g>
	<polygon class="st1" points="1078.04,506.47 1077.73,507.42 1076.41,511.4 1053.61,580.35 993.31,549.85 736,419.73 736,333.58 
		736.03,333.5 1076.41,505.64 	"/>
	<polygon class="st2" points="841.96,591.63 842.27,590.68 843.59,586.7 866.39,517.75 926.69,548.25 1184,678.37 1184,764.52 
		1183.97,764.6 843.59,592.46 	"/>
	<polygon class="st3" points="842.32,505.59 1182.73,333.46 1182.73,419.68 925.43,549.82 842.32,591.83 	"/>
	<polygon class="st4" points="1077.68,592.5 737.27,764.64 737.27,678.42 994.57,548.28 1077.68,506.26 	"/>
</g>
</svg>
