<?xml version="1.0" encoding="utf-8"?>
<!-- Generator: Adobe Illustrator 26.0.1, SVG Export Plug-In . SVG Version: 6.00 Build 0)  -->
<svg version="1.1" id="Layer_1" xmlns="http://www.w3.org/2000/svg" xmlns:xlink="http://www.w3.org/1999/xlink" x="0px" y="0px"
	 viewBox="0 0 792 612" style="enable-background:new 0 0 792 612;" xml:space="preserve">
<style type="text/css">
	.st0{fill:#ADD439;}
	.st1{fill:#1B6AC6;}
	.st2{fill:#2E90E8;}
	.st3{fill:#EA205E;}
	.st4{fill:#A5073E;}
	.st5{fill:#A1C535;}
	.st6{fill:#FFFFFF;}
	.st7{fill:#D9D4FF;}
	.st8{fill:#E6FFCB;}
	.st9{fill:none;}
</style>
<g>
	<polygon class="st0" points="618.71,202.96 537.78,247.26 414.53,178.31 414.53,88.75 	"/>
	<polygon class="st1" points="618.71,202.96 618.71,431.39 538.65,386.61 538.65,247.75 537.78,247.26 	"/>
	<polygon class="st2" points="618.71,431.39 414.53,545.61 414.52,545.61 414.53,456.04 538.65,386.61 	"/>
	<polygon class="st3" points="414.53,456.04 414.52,545.61 210.35,431.39 290.4,386.61 	"/>
	<polygon class="st4" points="291.27,247.26 290.4,247.75 290.4,386.61 210.35,431.39 210.35,202.96 	"/>
	<polygon class="st5" points="414.53,88.75 414.53,178.31 291.27,247.26 210.35,202.96 	"/>
	<polygon class="st6" points="414.53,314.74 414.53,456.04 290.4,386.61 290.4,247.75 291.27,247.26 	"/>
	<polygon class="st7" points="538.65,247.75 538.65,386.61 414.53,456.04 414.53,314.74 537.78,247.26 	"/>
	<polygon class="st8" points="537.78,247.26 414.53,314.74 291.27,247.26 414.53,178.31 	"/>
	<polygon class="st6" points="414.53,314.74 414.53,456.04 290.4,386.61 290.4,247.75 291.27,247.26 	"/>
	<line class="st9" x1="414.53" y1="314.74" x2="414.53" y2="314.2"/>
	<line class="st9" x1="414.53" y1="545.07" x2="414.53" y2="456.04"/>
</g>
</svg>
